<?xml version="1.0" encoding="UTF-8"?>
<!-- 2022-08-28 15:02:11 Generated by QCAD 3.27.1 SVG Exporter -->
<svg width="29157.0487mm" height="38499.9608mm" viewBox="-14578.48 -38499.9622 29157.0487 38499.9608" version="1.1" xmlns="http://www.w3.org/2000/svg" style="stroke-linecap:round;stroke-linejoin:round;fill:none" xmlns:xlink="http://www.w3.org/1999/xlink">
    <g transform="scale(1,-1)">
        <!-- Hatch -->
        <path d="M-5874.1573,29773.4831 A1000,1000 0 0 0 -6000,30259.126 L-6000,30623.3785 A1000,1000 0 0 0 -5743.4925,31292.1228 A16271.6,16271.6 0 0 0 -4595.4385,32446.6856 A9803.49,9803.49 0 0 0 -3357.3563,33404.1266 A7423.18,7423.18 0 0 0 -1602.4013,34245.1844 A5165.71,5165.71 0 0 0 1603.8631,34244.7048 A7425.81,7425.81 0 0 0 3358.7573,33403.2117 A9806.76,9806.76 0 0 0 4596.2244,32445.9839 A16272.9,16272.9 0 0 0 5743.4938,31292.1219 A1000,1000 0 0 0 6000,30623.379 L6000,30259.126 A1000,1000 0 0 0 5874.1573,29773.4831 L1000,21000 A5019.61,5019.61 0 0 1 -1000,21000 ZM-2787.9288,16332.9883 A6708.2,6708.2 0 0 1 -11000,13000 A5931.28,5931.28 0 0 0 -14000,21000 A25622.3,25622.3 0 0 1 -4000,20000 L-9857.4929,29762.4882 A1000,1000 0 0 0 -10000,30276.984 L-10000,31656.578 A1000,1000 0 0 0 -9785.2982,32275.6957 A29307.8,29307.8 0 0 0 -7695.6664,34650.4877 A16809.2,16809.2 0 0 0 -5688.9899,36396.3006 A13559.8,13559.8 0 0 0 -4299.6949,37297.9721 A10093.8,10093.8 0 0 0 -3009.1037,37911.4442 A8886.12,8886.12 0 0 0 -1476.7784,38357.015 A7697.71,7697.71 0 0 0 1479.8596,38356.4116 A8889.37,8889.37 0 0 0 3012.3401,37910.1775 A10098.4,10098.4 0 0 0 4302.5778,37296.361 A13566.3,13566.3 0 0 0 5691.5008,36394.4432 A16816.1,16816.1 0 0 0 7697.0925,34649.0614 A29310.6,29310.6 0 0 0 9785.299,32275.6951 A1000,1000 0 0 0 10000,31656.5783 L10000,30276.984 A1000,1000 0 0 0 9857.4929,29762.4882 L4000,20000 A25622.3,25622.3 0 0 1 14000,21000 A5931.28,5931.28 0 0 0 11000,13000 A6708.2,6708.2 0 0 1 2787.9289,16332.9883 A1000,1000 0 0 1 2132.1472,15219.466 A154341,154341 0 0 1 2762.3546,11787.0753 A79138.7,79138.7 0 0 1 3408.2116,8790.143 A57137.9,57137.9 0 0 1 3932.2886,6739.0331 A30537.5,30537.5 0 0 1 4380.814,5257.788 A22691.4,22691.4 0 0 1 4730.5063,4276.488 A13112.3,13112.3 0 0 1 5035.5902,3545.7137 A8757.38,8757.38 0 0 1 5443.5482,2755.3394 A1000,1000 0 0 0 5088.1965,1391.2686 A10000,10000 0 0 0 -5088.1969,1391.2688 A1000,1000 0 0 0 -5443.5542,2755.3299 A8759.6,8759.6 0 0 1 -5035.3804,3546.1765 A13116.2,13116.2 0 0 1 -4730.2812,4277.0705 A22697.6,22697.6 0 0 1 -4380.5728,5258.5176 A30545.1,30545.1 0 0 1 -3932.0671,6739.8274 A57147.9,57147.9 0 0 1 -3408.0228,8790.9434 A79148.8,79148.8 0 0 1 -2762.2434,11787.6379 A154344,154344 0 0 1 -2132.1472,15219.4661 A1000,1000 0 0 1 -2787.9288,16332.9883" style="fill:#ffff00;fill-rule:evenodd;"/>
    </g>
</svg>
